# File created by Blade
# Date/Time:  Tue Sep 30 19:11:22 2014
#---------------------------------------------------------
:version 1.10
:name HOM
:units
  mass 1.0
  length 1.000000
  angle deg
:documentation
     Acclaim Skeleton File
:root
   axis xyz
   order TX TY TZ RX RY RZ
   position 0.000000 0.000000 0.000000
   orientation 0 0 0
:bonedata
   begin
      id 1
      name Spine_dum
      direction 0.000000 1.000000 0.000000
      length 7.508948
      axis 0.0 0.0 0.0 xyz
   end
   begin
      id 2
      name LeftUpLeg_dum
      direction 1.000000 0.000000 0.000000
      length 3.000560
      axis 0.0 0.0 0.0 xyz
   end
   begin
      id 3
      name RightUpLeg_dum
      direction -1.000000 0.000000 0.000000
      length 3.000560
      axis 0.0 0.0 0.0 xyz
   end
   begin
      id 4
      name Spine
      direction 0.000000 1.000000 0.000000
      length 0.000000
      axis 0.0 0.0 0.0 xyz
      dof rx ry rz
   end
   begin
      id 5
      name Spine_dum1
      direction 0.000000 1.000000 0.000000
      length 13.861154
      axis 0.0 0.0 0.0 xyz
   end
   begin
      id 6
      name Spine_dum2
      direction 0.000000 1.000000 0.000000
      length 8.204781
      axis 0.0 0.0 0.0 xyz
   end
   begin
      id 7
      name Spine_dum3
      direction 0.000000 1.000000 0.000000
      length 8.204781
      axis 0.0 0.0 0.0 xyz
   end
   begin
      id 8
      name Head
      direction 0.000000 1.000000 0.000000
      length 4.527550
      axis 0.0 0.0 0.0 xyz
      dof rx ry rz
   end
   begin
      id 9
      name LeftShoulder
      direction 1.000000 0.000000 0.000000
      length 6.635956
      axis 0.0 0.0 -90.0 xyz
      dof rx ry rz
   end
   begin
      id 10
      name LeftArm
      direction 1.000000 0.000000 0.000000
      length 10.274218
      axis 0.0 0.0 -90.0 xyz
      dof rx ry rz
   end
   begin
      id 11
      name LeftForeArm
      direction 1.000000 0.000000 0.000000
      length 8.522147
      axis 0.0 0.0 -90.0 xyz
      dof ry rz rx
   end
   begin
      id 12
      name LeftHand
      direction 0.000000 0.000000 0.000000
      length 0.000000
      axis 0.0 0.0 -90.0 xyz
      dof rx ry rz
   end
   begin
      id 13
      name LeftHand_dum1
      direction 0.000000 0.000000 0.000000
      length 0.000000
      axis 0.0 0.0 -90.0 xyz
   end
   begin
      id 14
      name LeftHand_dum2
      direction 1.000000 0.000000 0.000000
      length 3.937000
      axis 0.0 0.0 -90.0 xyz
   end
   begin
      id 15
      name LeftHandThumb1
      direction 0.000000 0.000000 1.000000
      length 3.937000
      axis 0.0 0.0 -90.0 xyz
      dof rx rz ry
   end
   begin
      id 16
      name RightShoulder
      direction -1.000000 0.000000 0.000000
      length 6.635956
      axis 0.0 0.0 90.0 xyz
      dof rx ry rz
   end
   begin
      id 17
      name RightArm
      direction -1.000000 0.000000 0.000000
      length 10.274218
      axis 0.0 0.0 90.0 xyz
      dof rx ry rz
   end
   begin
      id 18
      name RightForeArm
      direction -1.000000 0.000000 0.000000
      length 8.522147
      axis 0.0 0.0 90.0 xyz
      dof ry rz rx
   end
   begin
      id 19
      name RightHand
      direction 0.000000 0.000000 0.000000
      length 0.000000
      axis 0.0 0.0 90.0 xyz
      dof rx ry rz
   end
   begin
      id 20
      name RightHand_dum1
      direction 0.000000 0.000000 0.000000
      length 0.000000
      axis 0.0 0.0 90.0 xyz
   end
   begin
      id 21
      name RightHand_dum2
      direction -1.000000 0.000000 0.000000
      length 3.937000
      axis 0.0 0.0 90.0 xyz
   end
   begin
      id 22
      name RightHandThumb1
      direction 0.000000 0.000000 1.000000
      length 3.937000
      axis 0.0 0.0 90.0 xyz
      dof rx rz ry
   end
   begin
      id 23
      name LeftUpLeg
      direction 0.000000 -1.000000 0.000000
      length 16.490845
      axis 0.0 0.0 0.0 xyz
      dof rx ry rz
   end
   begin
      id 24
      name LeftLeg
      direction 0.000000 -1.000000 0.000000
      length 14.556576
      axis 0.0 0.0 0.0 xyz
      dof rx ry rz
   end
   begin
      id 25
      name LeftFoot
      direction 0.000000 -0.258819 0.965926
      length 4.831116
      axis 15.0 0.0 0.0 xyz
      dof rx ry rz
   end
   begin
      id 26
      name LeftToeBase
      direction 0.000000 0.000000 1.000000
      length 2.952750
      axis 0.0 0.0 0.0 xyz
      dof rx ry rz
   end
   begin
      id 27
      name RightUpLeg
      direction 0.000000 -1.000000 0.000000
      length 16.490845
      axis 0.0 0.0 0.0 xyz
      dof rx ry rz
   end
   begin
      id 28
      name RightLeg
      direction 0.000000 -1.000000 0.000000
      length 14.556576
      axis 0.0 0.0 0.0 xyz
      dof rx ry rz
   end
   begin
      id 29
      name RightFoot
      direction 0.000000 -0.258819 0.965926
      length 4.831116
      axis 15.0 0.0 0.0 xyz
      dof rx ry rz
   end
   begin
      id 30
      name RightToeBase
      direction 0.000000 0.000000 1.000000
      length 2.952750
      axis 0.0 0.0 0.0 xyz
      dof rx ry rz
   end
:hierarchy
   begin
      root Spine_dum LeftUpLeg_dum RightUpLeg_dum
      Spine_dum Spine
      LeftUpLeg_dum LeftUpLeg
      RightUpLeg_dum RightUpLeg
      Spine Spine_dum1 Spine_dum2 Spine_dum3
      Spine_dum1 Head
      Spine_dum2 LeftShoulder
      Spine_dum3 RightShoulder
      LeftShoulder LeftArm
      LeftArm LeftForeArm
      LeftForeArm LeftHand
      LeftHand LeftHand_dum1 LeftHand_dum2
      LeftHand_dum1 LeftHandThumb1
      RightShoulder RightArm
      RightArm RightForeArm
      RightForeArm RightHand
      RightHand RightHand_dum1 RightHand_dum2
      RightHand_dum1 RightHandThumb1
      LeftUpLeg LeftLeg
      LeftLeg LeftFoot
      LeftFoot LeftToeBase
      RightUpLeg RightLeg
      RightLeg RightFoot
      RightFoot RightToeBase
   end

# File created by Blade
# Date/Time:  Thu Sep 25 14:26:36 2014
# Frame Rate: 120.000 fps
#------------------------------------------------------
:FULLY-SPECIFIED
:DEGREES
217
root -3.426955 32.822017 -1.358799 10.512137 2.482847 0.181820
Spine -7.211355 6.392130 2.768277
Head -3.232217 3.679240 3.554262
LeftShoulder -13.397077 20.193706 22.209463
LeftArm 24.784298 -19.368252 -42.465575
LeftForeArm 8.984922 -0.000000 24.654100
LeftHand -30.657343 -0.000000 6.117355
LeftHandThumb1 -26.253704 0.000000 33.147579
RightShoulder -17.388621 15.324987 -38.524860
RightArm -13.018015 3.196927 39.288270
RightForeArm -28.800649 0.000000 19.960133
RightHand -13.010279 -0.000000 2.577621
RightHandThumb1 -24.326973 -0.000000 -32.862282
LeftUpLeg -9.236653 2.760010 1.624424
LeftLeg 5.172805 -0.000000 -0.000000
LeftFoot -10.349465 1.895678 -19.817577
LeftToeBase 4.208163 -0.000000 -0.000000
RightUpLeg -7.722112 -10.072582 2.935606
RightLeg 2.625198 -0.000000 -0.000000
RightFoot -9.607431 -4.844294 -7.421099
RightToeBase -0.121390 -0.000000 0.000000
218
root -3.462052 32.823415 -1.395319 10.517687 2.735743 0.233052
Spine -7.051872 6.500300 2.842303
Head -2.973828 4.226557 3.346610
LeftShoulder -13.484170 20.385286 21.831787
LeftArm 25.071394 -19.036119 -43.297201
LeftForeArm 8.960769 -0.000000 25.501878
LeftHand -30.716614 -0.000000 6.584304
LeftHandThumb1 -26.253704 0.000000 33.147579
RightShoulder -17.302645 15.160472 -38.353346
RightArm -13.198762 2.973515 39.835907
RightForeArm -28.908923 -0.000000 20.005131
RightHand -12.938686 -0.000000 2.345025
RightHandThumb1 -24.326973 -0.000000 -32.862282
LeftUpLeg -9.624669 2.668497 1.651021
LeftLeg 5.755670 -0.000000 -0.000000
LeftFoot -10.412139 1.738845 -19.928517
LeftToeBase 4.163290 -0.000000 -0.000000
RightUpLeg -7.762734 -10.223940 2.992334
RightLeg 2.587771 -0.000000 -0.000000
RightFoot -9.556579 -4.972811 -7.503689
RightToeBase -0.121901 -0.000000 0.000000
219
root -3.498361 32.825284 -1.437871 10.521947 2.994743 0.288170
Spine -6.852118 6.641874 2.912274
Head -2.738437 4.780075 3.142723
LeftShoulder -13.537354 20.463654 21.489766
LeftArm 25.296826 -18.660913 -44.209712
LeftForeArm 9.224355 -0.000000 26.379945
LeftHand -30.844194 -0.000000 6.593904
LeftHandThumb1 -26.253704 0.000000 33.147579
RightShoulder -17.279628 15.067768 -38.214872
RightArm -13.390401 2.596187 40.428712
RightForeArm -28.983328 -0.000000 19.996051
RightHand -12.880880 0.000000 2.218291
RightHandThumb1 -24.326973 -0.000000 -32.862282
LeftUpLeg -10.087951 2.697409 1.653448
LeftLeg 6.470008 -0.000000 -0.000000
LeftFoot -10.476712 1.487398 -19.970702
LeftToeBase 4.158781 -0.000000 -0.000000
RightUpLeg -7.828014 -10.363980 3.048128
RightLeg 2.587300 -0.000000 -0.000000
RightFoot -9.522397 -5.115492 -7.544976
RightToeBase -0.086635 -0.000000 0.000000
220
root -3.532679 32.826044 -1.482495 10.560262 3.300579 0.344043
Spine -6.704003 6.754070 2.989555
Head -2.493519 5.367756 2.927011
LeftShoulder -13.512975 20.504723 21.219214
LeftArm 25.334593 -18.185688 -45.147558
LeftForeArm 9.431007 0.000000 27.421205
LeftHand -30.842799 0.000000 5.975916
LeftHandThumb1 -26.253704 0.000000 33.147579
RightShoulder -17.158586 15.093410 -38.058136
RightArm -13.809636 2.120559 40.986755
RightForeArm -29.274004 0.000000 20.098462
RightHand -12.883052 -0.000000 2.461144
RightHandThumb1 -24.326973 -0.000000 -32.862282
LeftUpLeg -10.597718 2.632020 1.664066
LeftLeg 7.191270 -0.000000 -0.000000
LeftFoot -10.536954 1.271859 -20.055488
LeftToeBase 4.135513 -0.000000 -0.000000
RightUpLeg -7.932633 -10.566179 3.115690
RightLeg 2.590373 -0.000000 -0.000000
RightFoot -9.509093 -5.250218 -7.596700
RightToeBase -0.052297 -0.000000 0.000000
221
root -3.567542 32.826637 -1.523057 10.552616 3.602057 0.401255
Spine -6.500415 6.888849 3.055728
Head -2.225433 5.991129 2.759770
LeftShoulder -13.500010 20.638669 20.889008
LeftArm 25.526374 -17.798462 -46.157061
LeftForeArm 9.761821 -0.000000 28.278966
LeftHand -30.457504 -0.000000 5.769296
LeftHandThumb1 -26.253704 0.000000 33.147579
RightShoulder -17.117118 14.890815 -37.836587
RightArm -13.902346 1.853807 41.624300
RightForeArm -29.363617 -0.000000 19.978337
RightHand -12.708659 -0.000000 2.572271
RightHandThumb1 -24.326973 -0.000000 -32.862282
LeftUpLeg -11.024440 2.490957 1.682775
LeftLeg 7.852467 -0.000000 -0.000000
LeftFoot -10.611241 1.162595 -20.154000
LeftToeBase 4.118702 -0.000000 -0.000000
RightUpLeg -7.972260 -10.757341 3.162069
RightLeg 2.575314 -0.000000 -0.000000
RightFoot -9.500265 -5.332747 -7.555317
RightToeBase -0.015007 -0.000000 0.000000
222
root -3.600933 32.828768 -1.568175 10.567063 3.928536 0.475579
Spine -6.321491 6.992099 3.119653
Head -1.927685 6.637898 2.587971
LeftShoulder -13.481204 20.688067 20.529215
LeftArm 25.682800 -17.302263 -47.111798
LeftForeArm 10.076199 -0.000000 29.034894
LeftHand -30.370513 -0.000000 5.641551
LeftHandThumb1 -26.253704 0.000000 33.147579
RightShoulder -17.010613 14.785799 -37.569292
RightArm -14.120701 1.384860 42.232032
RightForeArm -29.084050 -0.000000 19.944930
RightHand -12.754778 -0.000000 2.668407
RightHandThumb1 -24.326973 -0.000000 -32.862282
LeftUpLeg -11.485067 2.271246 1.693562
LeftLeg 8.511742 -0.000000 -0.000000
LeftFoot -10.649184 1.095714 -20.355659
LeftToeBase 4.002779 -0.000000 -0.000000
RightUpLeg -8.056154 -10.977667 3.199451
RightLeg 2.591339 -0.000000 -0.000000
RightFoot -9.487644 -5.440311 -7.552270
RightToeBase -0.018120 -0.000000 0.000000
223
root -3.632431 32.830611 -1.615632 10.580509 4.288935 0.557935
Spine -6.127496 7.106578 3.194004
Head -1.632303 7.294138 2.396839
LeftShoulder -13.492345 20.814426 20.126714
LeftArm 26.023863 -16.767488 -48.106609
LeftForeArm 10.157803 -0.000000 29.736631
LeftHand -30.457798 -0.000000 5.408237
LeftHandThumb1 -26.253704 0.000000 33.147579
RightShoulder -16.973908 14.662808 -37.371187
RightArm -14.316814 0.881084 42.958141
RightForeArm -28.615230 0.000000 19.850067
RightHand -12.743926 -0.000000 2.485730
RightHandThumb1 -24.326973 -0.000000 -32.862282
LeftUpLeg -11.988485 2.096285 1.686262
LeftLeg 9.240414 -0.000000 -0.000000
LeftFoot -10.690075 0.962372 -20.541375
LeftToeBase 4.014613 -0.000000 -0.000000
RightUpLeg -8.144659 -11.232370 3.229422
RightLeg 2.620098 -0.000000 -0.000000
RightFoot -9.516223 -5.501788 -7.462763
RightToeBase 0.081591 -0.000000 -0.000000
